<?xml version="1.0" encoding="UTF-8"?>
<svg version="1.1" xmlns="http://www.w3.org/2000/svg" width="1254" height="1254">
<path d="M0 0 C413.82 0 827.64 0 1254 0 C1254 413.82 1254 827.64 1254 1254 C840.18 1254 426.36 1254 0 1254 C0 840.18 0 426.36 0 0 Z " fill="#060E20" transform="translate(0,0)"/>
<path d="M0 0 C52.36471885 -0.06845412 104.72944121 -0.13213909 157.0941925 -0.16937256 C157.86885787 -0.16992479 158.64352323 -0.17047702 159.4416633 -0.17104598 C176.27608232 -0.18301682 193.11050181 -0.19409766 209.94492201 -0.20426132 C218.20017923 -0.20925079 226.45543633 -0.21443699 234.71069336 -0.21972656 C235.94295789 -0.22051112 235.94295789 -0.22051112 237.20011665 -0.22131152 C263.84118108 -0.23836552 290.48221163 -0.26841716 317.12325552 -0.30518888 C344.49392817 -0.34289918 371.86458207 -0.36753711 399.23528026 -0.37565996 C403.09869023 -0.37681263 406.96210014 -0.37811518 410.82551003 -0.37950897 C411.58590567 -0.37977866 412.34630132 -0.38004836 413.12973927 -0.38032622 C425.38397964 -0.3850583 437.63816212 -0.40362453 449.89237886 -0.42732814 C462.20355729 -0.450848 474.51467817 -0.45987924 486.82587828 -0.45400551 C493.49980258 -0.45122568 500.17359204 -0.45547439 506.84749603 -0.4768219 C512.95116019 -0.49620364 519.05453854 -0.49732456 525.1582155 -0.48359558 C527.37229285 -0.48189732 529.58638761 -0.48704206 531.80043038 -0.49953273 C534.79904378 -0.51547291 537.79661133 -0.50700298 540.79520702 -0.49219131 C541.66446195 -0.50269937 542.53371687 -0.51320742 543.42931286 -0.5240339 C547.48233499 -0.47847038 549.48130776 -0.33489089 552.96597034 1.91496301 C554.82063648 3.81613858 556.62446858 5.70411396 558.33203125 7.73828125 C561.99080067 12.01393047 565.81472058 16.10591983 569.6875 20.1875 C578.77197182 29.80232903 587.77071364 39.48425064 596.58984375 49.34375 C598.42019798 51.36099615 600.26481314 53.35807342 602.12890625 55.34375 C607.97925053 61.57779346 613.60093462 67.8649467 618.94921875 74.54296875 C621.49818222 77.59686974 624.26400664 80.35018818 627.11328125 83.12109375 C629.5538796 85.5515861 631.78131202 88.13290235 634.02734375 90.7421875 C636.43201516 93.49446488 638.89991795 96.1862632 641.375 98.875 C646.28819384 104.21611987 651.15379501 109.59795788 656 115 C657.49971128 116.66692647 658.99971321 118.33359149 660.5 120 C661.23992188 120.82242188 661.97984375 121.64484375 662.7421875 122.4921875 C664.26708244 124.18592894 665.79315402 125.87861169 667.3203125 127.5703125 C671.31489899 131.99821006 675.27734092 136.44957552 679.1953125 140.9453125 C682.75638173 144.99969003 686.3834804 148.9951293 690 153 C694.76786975 158.27985576 699.51512218 163.57291806 704.1875 168.9375 C706.27211164 171.30964429 708.38428644 173.65556065 710.5 176 C713.76704335 179.62023723 716.99520776 183.26983565 720.1953125 186.94921875 C722.22958141 189.26088797 724.3022231 191.5353143 726.375 193.8125 C729.46636801 197.23229328 732.42459032 200.71958524 735.3125 204.3125 C738.72421668 208.53397841 742.29308723 212.54082096 746 216.5 C751.27000157 222.1313731 756.2300645 227.9337763 761 234 C761.59683594 234.67933594 762.19367187 235.35867188 762.80859375 236.05859375 C764 238 764 238 763.79736328 239.85546875 C759.9268821 250.26523809 745.84413875 260.23100295 738.0625 267.9375 C735.25883545 270.71456252 732.45851982 273.49494087 729.66015625 276.27734375 C729.02062515 276.90857651 728.38109406 277.53980927 727.72218323 278.19017029 C727.1307402 278.77831009 726.53929718 279.36644989 725.92993164 279.97241211 C725.41080704 280.4862999 724.89168243 281.00018768 724.35682678 281.52964783 C722.77744014 283.16417387 722.77744014 283.16417387 721 286 C720.34 286 719.68 286 719 286 C718.59662666 286.8918399 718.59662666 286.8918399 718.18510437 287.80169678 C716.99616157 290.00712007 715.81418854 291.42221096 714.03833008 293.17285156 C713.44043167 293.76737122 712.84253326 294.36189087 712.22651672 294.97442627 C711.58071152 295.60677185 710.93490631 296.23911743 710.26953125 296.890625 C709.60088547 297.55406921 708.93223969 298.21751343 708.24333191 298.90106201 C706.10441918 301.02218406 703.9589638 303.13652168 701.8125 305.25 C699.68471241 307.34999707 697.55846171 309.45149132 695.43522644 311.55609131 C694.11572591 312.86352544 692.79356395 314.16828143 691.46821594 315.4697876 C687.714716 319.18334063 684.19976721 323.02777875 680.75010681 327.02380371 C677.87425297 330.27117791 674.79746409 333.30593349 671.7109375 336.3515625 C671.04462311 337.01409027 670.37830872 337.67661804 669.69180298 338.35922241 C667.58864762 340.45029581 665.48225716 342.53806075 663.375 344.625 C660.58819586 347.38506916 657.80482042 350.14853152 655.0234375 352.9140625 C654.39311615 353.53608551 653.7627948 354.15810852 653.1133728 354.79898071 C650.31576454 357.5811271 647.65453638 360.36234291 645.18603516 363.44287109 C644.46464355 364.28672363 643.74325195 365.13057617 643 366 C642.34 366 641.68 366 641 366 C640.74433762 366.58130676 640.48867523 367.16261353 640.2252655 367.76153564 C638.87699384 370.22472265 637.39084403 371.84324446 635.39575195 373.81542969 C634.65770828 374.5500946 633.91966461 375.28475952 633.15925598 376.04168701 C632.36033432 376.82714905 631.56141266 377.61261108 630.73828125 378.421875 C629.5022541 379.65009979 629.5022541 379.65009979 628.24125671 380.90313721 C625.60303526 383.52354537 622.95825176 386.13719688 620.3125 388.75 C617.68542931 391.34933098 615.05986951 393.95014188 612.43730164 396.55401611 C610.80617276 398.17302512 609.17237885 399.78935517 607.53547668 401.40252686 C603.42043758 405.48191352 599.51064773 409.65036718 595.73210144 414.04180908 C592.68161715 417.49047005 589.39919436 420.70293455 586.125 423.9375 C585.03276123 425.02405884 585.03276123 425.02405884 583.91845703 426.13256836 C580.83943049 429.19542424 577.75441677 432.25222311 574.66992188 435.30957031 C572.40284542 437.55844117 570.13887034 439.81040238 567.875 442.0625 C567.18937988 442.73982178 566.50375977 443.41714355 565.79736328 444.11499023 C561.91339504 447.97944822 558.24461865 451.95886883 554.66607666 456.10684204 C552.16073006 458.95365994 549.49867876 461.62587699 546.8046875 464.29296875 C546.24935333 464.84688797 545.69401917 465.40080719 545.12185669 465.97151184 C543.37527741 467.7125771 541.62523442 469.45011 539.875 471.1875 C538.69637945 472.36109203 537.51799238 473.5349186 536.33984375 474.70898438 C534.1757538 476.86497675 532.01032396 479.01960277 529.84326172 481.17260742 C529.36472748 481.64881531 528.88619324 482.12502319 528.39315796 482.61566162 C527.05461454 483.94573121 525.71196249 485.27166212 524.36914062 486.59741211 C522.21367498 488.78330838 520.18194535 491.02372684 518.1640625 493.3359375 C511.54444036 500.73401624 504.42678 507.6425493 497.375 514.625 C494.62980446 517.34334453 491.88812568 520.06516866 489.1484375 522.7890625 C488.53471283 523.39448883 487.92098816 523.99991516 487.28866577 524.62368774 C484.24443 527.65091053 481.32460825 530.73216559 478.51806641 533.98193359 C475.03963592 538.00716086 471.3472877 541.76414328 467.5625 545.5 C466.87873291 546.17998047 466.19496582 546.85996094 465.49047852 547.56054688 C462.60262227 550.43225143 459.70876925 553.29788438 456.81542969 556.1640625 C454.68734275 558.27392787 452.56237083 560.38689645 450.4375 562.5 C449.79562744 563.13357422 449.15375488 563.76714844 448.49243164 564.41992188 C445.37442955 567.52124581 442.37492801 570.67109359 439.5 574 C436.02832429 578.01988623 432.34126691 581.77008623 428.5625 585.5 C427.87873291 586.17998047 427.19496582 586.85996094 426.49047852 587.56054688 C423.60262227 590.43225143 420.70876925 593.29788438 417.81542969 596.1640625 C415.68734275 598.27392787 413.56237083 600.38689645 411.4375 602.5 C410.79562744 603.13357422 410.15375488 603.76714844 409.49243164 604.41992188 C406.40144876 607.49437113 403.42734491 610.61390423 400.58203125 613.91796875 C396.68202742 618.43330288 392.48986085 622.61814828 388.25 626.8125 C387.43305664 627.62565674 386.61611328 628.43881348 385.77441406 629.27661133 C382.31304958 632.7217734 378.84571409 636.1609029 375.37890625 639.60058594 C372.83384812 642.12746508 370.29186869 644.65741315 367.75 647.1875 C366.97688477 647.95231689 366.20376953 648.71713379 365.40722656 649.50512695 C361.34667641 653.54749421 357.48991246 657.68278081 353.75170898 662.0234375 C350.62386418 665.55277987 347.25927424 668.84255407 343.90625 672.15625 C343.15589478 672.9028186 342.40553955 673.64938721 341.63244629 674.4185791 C338.45783496 677.57701112 335.27724084 680.72939279 332.09716797 683.88232422 C329.76059639 686.20069745 327.42712001 688.5221552 325.09375 690.84375 C324.3862561 691.54294556 323.67876221 692.24214111 322.9498291 692.96252441 C318.96677162 696.92616506 315.18866151 700.99975603 311.51965332 705.25549316 C309.77786773 707.25499978 307.95592354 709.14386489 306.0625 711 C305.39476562 711.66 304.72703125 712.32 304.0390625 713 C302.6796875 714.33333333 301.3203125 715.66666667 299.9609375 717 C296.01051801 720.90466174 292.27643342 724.91283625 288.65185547 729.12109375 C286.23765865 731.86712667 283.67023629 734.43915247 281.0625 737 C280.32290039 737.73283203 280.32290039 737.73283203 279.56835938 738.48046875 C278.38126771 739.65603525 277.19099502 740.82838826 276 742 C267.93978135 735.34155851 260.63446918 728.00636017 253.84375 720.0625 C250.91828479 716.7899457 247.7689672 713.74873122 244.625 710.6875 C242.58622321 708.60018091 240.68427926 706.49764676 238.78710938 704.28710938 C235.27569739 700.26008028 231.58330136 696.46991301 227.78125 692.71875 C227.11967896 692.06096558 226.45810791 691.40318115 225.77648926 690.72546387 C223.68677265 688.64782726 221.59382685 686.57349373 219.5 684.5 C216.736583 681.7634185 213.97666278 679.02337737 211.21875 676.28125 C210.59875122 675.66954956 209.97875244 675.05784912 209.33996582 674.4276123 C206.30871058 671.41311449 203.39862767 668.34998638 200.609375 665.109375 C196.63275131 660.50756404 192.35253819 656.24493125 188.03125 651.96875 C187.1921106 651.13339722 186.35297119 650.29804443 185.48840332 649.43737793 C182.828031 646.78912914 180.16443987 644.14415594 177.5 641.5 C173.98662727 638.01337399 170.47668029 634.52335074 166.96875 631.03125 C166.17376099 630.24455933 165.37877197 629.45786865 164.55969238 628.64733887 C160.43267089 624.5383096 156.50231088 620.34176416 152.70373535 615.92858887 C149.80057206 612.64227541 146.68208603 609.579255 143.5625 606.5 C142.87873291 605.82001953 142.19496582 605.14003906 141.49047852 604.43945312 C139.32942945 602.29049074 137.16515274 600.14482721 135 598 C132.14283983 595.16966163 129.28916546 592.33587327 126.4375 589.5 C125.47469116 588.54963867 125.47469116 588.54963867 124.49243164 587.58007812 C120.72225265 583.83006578 117.17881834 579.95270886 113.70385742 575.92871094 C111.07257221 572.95018204 108.26784025 570.16297358 105.4375 567.375 C104.84251709 566.78380371 104.24753418 566.19260742 103.63452148 565.58349609 C101.75880343 563.719835 99.87985097 561.85949158 98 560 C95.51780934 557.54469227 93.03915358 555.08589153 90.5625 552.625 C90.00812256 552.0789209 89.45374512 551.5328418 88.88256836 550.97021484 C86.02606274 548.13126532 83.30375981 545.23190168 80.67773438 542.17773438 C76.54248447 537.39913457 72.08249652 532.97558551 67.59375 528.53125 C66.71021851 527.65150513 65.82668701 526.77176025 64.91638184 525.86535645 C62.11334867 523.07445494 59.30720084 520.28670768 56.5 517.5 C52.7989945 513.82601262 49.10168178 510.14834398 45.40625 506.46875 C44.14814514 505.22309265 44.14814514 505.22309265 42.86462402 503.95227051 C38.61778657 499.7230183 34.55518663 495.41695618 30.64807129 490.8729248 C27.97228451 487.83206883 25.10243841 484.99841169 22.21875 482.15625 C21.60157104 481.54285767 20.98439209 480.92946533 20.34851074 480.29748535 C18.40145962 478.36249942 16.45117593 476.43082595 14.5 474.5 C0.12061446 460.2705857 0.12061446 460.2705857 -5.04492188 454.17773438 C-10.25842539 448.3704852 -15.95457681 442.98758664 -21.5 437.5 C-24.07593219 434.95093376 -26.64834314 432.39838646 -29.21875 429.84375 C-29.79500122 429.27579712 -30.37125244 428.70784424 -30.96496582 428.12268066 C-33.89471445 425.21029163 -36.69387158 422.2395936 -39.390625 419.109375 C-43.23491677 414.6646374 -47.35451743 410.53684568 -51.53125 406.40625 C-52.32599731 405.61528931 -53.12074463 404.82432861 -53.9395752 404.00939941 C-56.45728432 401.50380477 -58.97821446 399.00149142 -61.5 396.5 C-64.82588189 393.2008832 -68.14832336 389.89835626 -71.46875 386.59375 C-72.21999146 385.85080688 -72.97123291 385.10786377 -73.74523926 384.34240723 C-77.09861022 381.00447137 -80.3596587 377.6427659 -83.4453125 374.0546875 C-87.53274142 369.31138439 -91.95879468 364.93470284 -96.40625 360.53125 C-97.73154724 359.21163269 -97.73154724 359.21163269 -99.08361816 357.86535645 C-101.88665133 355.07445494 -104.69279916 352.28670768 -107.5 349.5 C-111.2010055 345.82601262 -114.89831822 342.14834398 -118.59375 338.46875 C-119.43248657 337.63831177 -120.27122314 336.80787354 -121.13537598 335.95227051 C-125.39092826 331.71433956 -129.46366085 327.3995988 -133.37878418 322.84606934 C-135.90767042 319.96644079 -138.61373542 317.28122105 -141.34375 314.59375 C-141.91653687 314.02474976 -142.48932373 313.45574951 -143.07946777 312.86950684 C-144.88385251 311.07717018 -146.6914736 309.28815684 -148.5 307.5 C-161.95958253 294.19201373 -161.95958253 294.19201373 -167.22412109 287.99853516 C-171.27826271 283.43609313 -175.7175475 279.22161302 -180.0625 274.9375 C-191.12544631 264.02889475 -191.12544631 264.02889475 -195.73950195 258.48461914 C-198.55572057 255.16766671 -201.74464288 252.23697141 -204.9296875 249.28125 C-205.91153094 248.35424356 -206.89330138 247.4271598 -207.875 246.5 C-208.38546875 246.03980469 -208.8959375 245.57960938 -209.421875 245.10546875 C-211.64393886 242.97348856 -212.95482088 241.67768685 -213.1640625 238.5390625 C-211.5631865 235.04721889 -209.16502061 232.57209994 -206.5 229.875 C-205.39976149 228.72642637 -204.30213388 227.57534645 -203.20703125 226.421875 C-202.66256348 225.84888672 -202.1180957 225.27589844 -201.55712891 224.68554688 C-199.31513416 222.25865259 -197.25047067 219.70460408 -195.1875 217.125 C-192.74629532 214.08335539 -190.30525702 211.20896674 -187.5 208.5 C-184.71494578 205.81032435 -182.29501384 202.96031728 -179.875 199.9375 C-175.18499463 194.10711661 -170.12483596 188.67785214 -165.0078125 183.22265625 C-162.1577443 180.18205669 -159.39511189 177.07651576 -156.671875 173.921875 C-154.64241927 171.58894926 -152.572353 169.29488755 -150.5 167 C-147.84886006 164.06321535 -145.21709829 161.11397458 -142.625 158.125 C-140.14962442 155.27717207 -137.6144409 152.49255167 -135.04956055 149.72509766 C-130.98629983 145.33942225 -127.05883605 140.91512658 -123.3125 136.25 C-120.04963243 132.19613423 -116.61842499 128.50787785 -112.890625 124.8828125 C-110.42942069 122.43177845 -108.17868527 119.8309379 -105.9140625 117.19921875 C-103.64845431 114.59608118 -101.32696448 112.04841276 -99 109.5 C-95.54671847 105.71337002 -92.13900949 101.8952368 -88.77734375 98.02734375 C-85.94445718 94.79598522 -83.05556133 91.61531919 -80.17578125 88.42578125 C-78.32556437 86.36297212 -76.50055191 84.2828763 -74.6875 82.1875 C-71.01558017 77.96778794 -67.20627187 73.87896889 -63.40307617 69.77807617 C-60.72628745 66.88670849 -58.0770391 63.98128052 -55.5 61 C-51.94004906 56.88162538 -48.2366879 52.89962543 -44.52539062 48.91796875 C-41.83066559 46.01817118 -39.18900446 43.08310947 -36.59375 40.09375 C-32.39457213 35.27161717 -28.00208659 30.64137801 -23.60546875 26 C-19.82185795 21.98921588 -16.14988544 17.9045806 -12.53564453 13.74072266 C-10.82837663 11.80545713 -9.04665303 9.97698922 -7.1875 8.1875 C-5.07716625 6.15443247 -3.65313906 4.47970859 -2 2 C-1.34 2 -0.68 2 0 2 C0 1.34 0 0.68 0 0 Z " fill="#1BC268" transform="translate(352,304)"/>
<path d="M0 0 C52.36471885 -0.06845412 104.72944121 -0.13213909 157.0941925 -0.16937256 C157.86885787 -0.16992479 158.64352323 -0.17047702 159.4416633 -0.17104598 C176.27608232 -0.18301682 193.11050181 -0.19409766 209.94492201 -0.20426132 C218.20017923 -0.20925079 226.45543633 -0.21443699 234.71069336 -0.21972656 C235.94295789 -0.22051112 235.94295789 -0.22051112 237.20011665 -0.22131152 C263.84118108 -0.23836552 290.48221163 -0.26841716 317.12325552 -0.30518888 C344.49392817 -0.34289918 371.86458207 -0.36753711 399.23528026 -0.37565996 C403.09869023 -0.37681263 406.96210014 -0.37811518 410.82551003 -0.37950897 C411.58590567 -0.37977866 412.34630132 -0.38004836 413.12973927 -0.38032622 C425.38397964 -0.3850583 437.63816212 -0.40362453 449.89237886 -0.42732814 C462.20355729 -0.450848 474.51467817 -0.45987924 486.82587828 -0.45400551 C493.49980258 -0.45122568 500.17359204 -0.45547439 506.84749603 -0.4768219 C512.95116019 -0.49620364 519.05453854 -0.49732456 525.1582155 -0.48359558 C527.37229285 -0.48189732 529.58638761 -0.48704206 531.80043038 -0.49953273 C534.79904378 -0.51547291 537.79661133 -0.50700298 540.79520702 -0.49219131 C541.66446195 -0.50269937 542.53371687 -0.51320742 543.42931286 -0.5240339 C547.48233499 -0.47847038 549.48130776 -0.33489089 552.96597034 1.91496301 C554.82063648 3.81613858 556.62446858 5.70411396 558.33203125 7.73828125 C561.99080067 12.01393047 565.81472058 16.10591983 569.6875 20.1875 C578.77197182 29.80232903 587.77071364 39.48425064 596.58984375 49.34375 C598.42019798 51.36099615 600.26481314 53.35807342 602.12890625 55.34375 C607.97925053 61.57779346 613.60093462 67.8649467 618.94921875 74.54296875 C621.49818222 77.59686974 624.26400664 80.35018818 627.11328125 83.12109375 C629.5538796 85.5515861 631.78131202 88.13290235 634.02734375 90.7421875 C636.43201516 93.49446488 638.89991795 96.1862632 641.375 98.875 C646.28819384 104.21611987 651.15379501 109.59795788 656 115 C657.49971128 116.66692647 658.99971321 118.33359149 660.5 120 C661.23992188 120.82242188 661.97984375 121.64484375 662.7421875 122.4921875 C664.26708244 124.18592894 665.79315402 125.87861169 667.3203125 127.5703125 C671.31489899 131.99821006 675.27734092 136.44957552 679.1953125 140.9453125 C682.75638173 144.99969003 686.3834804 148.9951293 690 153 C694.76786975 158.27985576 699.51512218 163.57291806 704.1875 168.9375 C706.27211164 171.30964429 708.38428644 173.65556065 710.5 176 C713.76704335 179.62023723 716.99520776 183.26983565 720.1953125 186.94921875 C722.22958141 189.26088797 724.3022231 191.5353143 726.375 193.8125 C729.46636801 197.23229328 732.42459032 200.71958524 735.3125 204.3125 C738.72421668 208.53397841 742.29308723 212.54082096 746 216.5 C751.27000157 222.1313731 756.2300645 227.9337763 761 234 C761.59683594 234.67933594 762.19367187 235.35867188 762.80859375 236.05859375 C763.20175781 236.69925781 763.59492187 237.33992187 764 238 C763.67 239.32 763.34 240.64 763 242 C520.12 242 277.24 242 27 242 C25.31166879 230.74445857 23.71825127 219.73237912 22.52636719 208.45678711 C22.02538615 203.9871846 21.31514234 199.56467842 20.578125 195.12890625 C19.15104882 186.29763947 18.03241514 177.45426862 17.03735352 168.56512451 C16.51815973 163.93042674 15.98408619 159.29742417 15.453125 154.6640625 C15.33912354 153.66573395 15.22512207 152.6674054 15.10766602 151.63882446 C13.61042804 138.54634157 12.05458789 125.46077496 10.5 112.375 C10.35054932 111.11635132 10.20109863 109.85770264 10.04711914 108.56091309 C8.23558609 93.3108224 6.4160619 78.06170924 4.56210327 62.81671143 C4.3555244 61.11782389 4.14932174 59.41889055 3.94351196 57.71990967 C3.02385499 50.13360581 2.09404869 42.55169234 1.02734375 34.984375 C-3.04343209 6.08686417 -3.04343209 6.08686417 0 0 Z " fill="#3CD652" transform="translate(352,304)"/>
<path d="M0 0 C0.33 0 0.66 0 1 0 C1.03013184 0.8863916 1.06026367 1.7727832 1.09130859 2.68603516 C1.69938931 15.96762662 3.39119732 29.08218077 5.09432983 42.26138306 C5.91883247 48.64171224 6.72444353 55.02444348 7.53149223 61.40699959 C7.71660481 62.87042753 7.90191471 64.33383052 8.08741951 65.79720879 C10.03056743 81.12671115 11.87627822 96.46681805 13.6875 111.8125 C13.83178436 113.03218475 13.97606873 114.25186951 14.12472534 115.5085144 C15.57297261 127.75588156 17.00545312 140.00492473 18.40625 152.2578125 C21.1683995 176.74055751 21.1683995 176.74055751 24.57788086 201.13964844 C25.45409981 206.83061629 26.14754413 212.46729967 26.57421875 218.2109375 C28.24785485 238.1298222 34.71336862 252.84934398 44.00830078 270.22558594 C46.86003853 275.58137567 49.42668272 281.06895855 52 286.5625 C55.17055719 293.22884402 58.40332368 299.85715822 61.73242188 306.44555664 C65.83924808 314.6087996 69.77226043 322.85795673 73.72583008 331.09619141 C76.73754521 337.36018085 79.78726306 343.60118086 82.90625 349.8125 C87.55449612 359.06961463 92.06308238 368.39307385 96.57275391 377.71826172 C100.67449731 386.19644386 104.81261434 394.65293878 109.03910828 403.06967163 C112.36234548 409.69896456 115.59089966 416.3728918 118.81240845 423.05206299 C123.74549276 433.27709991 128.70529323 443.48548591 133.8125 453.625 C137.25529189 460.46031486 140.60227709 467.33175218 143.875 474.25 C149.24432016 485.5864657 154.87410587 496.78935173 160.5 508 C166.56655908 520.08875575 172.60094324 532.18204145 178.3828125 544.41015625 C180.83899396 549.59805234 183.35257968 554.75162906 185.93115234 559.87988281 C186.44887207 560.90952148 186.9665918 561.93916016 187.5 563 C187.90659348 563.80679703 188.31318695 564.61359406 188.73210144 565.44483948 C191.38343218 570.722591 193.98090595 576.02013675 196.50645447 581.35914612 C203.82384384 596.82713682 211.47129935 612.1301161 219.12426758 627.43383789 C220.66740387 630.52002901 222.20769819 633.60761155 223.74536133 636.6965332 C232.13788495 653.55466023 240.60309373 670.33154402 249.77445984 686.78408813 C255.15731425 696.51688297 260.25903875 706.39832514 265.17260742 716.37524414 C267.6167914 721.31643581 270.26586532 726.11327287 273.06640625 730.86328125 C274 733 274 733 273 736 C267.06454354 730.15225964 261.17560204 724.34302484 255.7734375 717.9921875 C252.8771001 714.73859262 249.74484728 711.72524604 246.625 708.6875 C244.58622321 706.60018091 242.68427926 704.49764676 240.78710938 702.28710938 C237.27569739 698.26008028 233.58330136 694.46991301 229.78125 690.71875 C229.11967896 690.06096558 228.45810791 689.40318115 227.77648926 688.72546387 C225.68677265 686.64782726 223.59382685 684.57349373 221.5 682.5 C218.736583 679.7634185 215.97666278 677.02337737 213.21875 674.28125 C212.59875122 673.66954956 211.97875244 673.05784912 211.33996582 672.4276123 C208.30871058 669.41311449 205.39862767 666.34998638 202.609375 663.109375 C198.63275131 658.50756404 194.35253819 654.24493125 190.03125 649.96875 C189.1921106 649.13339722 188.35297119 648.29804443 187.48840332 647.43737793 C184.828031 644.78912914 182.16443987 642.14415594 179.5 639.5 C175.98662727 636.01337399 172.47668029 632.52335074 168.96875 629.03125 C168.17376099 628.24455933 167.37877197 627.45786865 166.55969238 626.64733887 C162.43267089 622.5383096 158.50231088 618.34176416 154.70373535 613.92858887 C151.80057206 610.64227541 148.68208603 607.579255 145.5625 604.5 C144.87873291 603.82001953 144.19496582 603.14003906 143.49047852 602.43945312 C141.32942945 600.29049074 139.16515274 598.14482721 137 596 C134.14283983 593.16966163 131.28916546 590.33587327 128.4375 587.5 C127.47469116 586.54963867 127.47469116 586.54963867 126.49243164 585.58007812 C122.72225265 581.83006578 119.17881834 577.95270886 115.70385742 573.92871094 C113.07257221 570.95018204 110.26784025 568.16297358 107.4375 565.375 C106.84251709 564.78380371 106.24753418 564.19260742 105.63452148 563.58349609 C103.75880343 561.719835 101.87985097 559.85949158 100 558 C97.51780934 555.54469227 95.03915358 553.08589153 92.5625 550.625 C92.00812256 550.0789209 91.45374512 549.5328418 90.88256836 548.97021484 C88.02606274 546.13126532 85.30375981 543.23190168 82.67773438 540.17773438 C78.54248447 535.39913457 74.08249652 530.97558551 69.59375 526.53125 C68.71021851 525.65150513 67.82668701 524.77176025 66.91638184 523.86535645 C64.11334867 521.07445494 61.30720084 518.28670768 58.5 515.5 C54.7989945 511.82601262 51.10168178 508.14834398 47.40625 504.46875 C46.14814514 503.22309265 46.14814514 503.22309265 44.86462402 501.95227051 C40.61778657 497.7230183 36.55518663 493.41695618 32.64807129 488.8729248 C29.97228451 485.83206883 27.10243841 482.99841169 24.21875 480.15625 C23.60157104 479.54285767 22.98439209 478.92946533 22.34851074 478.29748535 C20.40145962 476.36249942 18.45117593 474.43082595 16.5 472.5 C2.12061446 458.2705857 2.12061446 458.2705857 -3.04492188 452.17773438 C-8.25842539 446.3704852 -13.95457681 440.98758664 -19.5 435.5 C-22.07593219 432.95093376 -24.64834314 430.39838646 -27.21875 427.84375 C-27.79500122 427.27579712 -28.37125244 426.70784424 -28.96496582 426.12268066 C-31.89471445 423.21029163 -34.69387158 420.2395936 -37.390625 417.109375 C-41.23491677 412.6646374 -45.35451743 408.53684568 -49.53125 404.40625 C-50.32599731 403.61528931 -51.12074463 402.82432861 -51.9395752 402.00939941 C-54.45728432 399.50380477 -56.97821446 397.00149142 -59.5 394.5 C-62.82588189 391.2008832 -66.14832336 387.89835626 -69.46875 384.59375 C-70.21999146 383.85080688 -70.97123291 383.10786377 -71.74523926 382.34240723 C-75.09861022 379.00447137 -78.3596587 375.6427659 -81.4453125 372.0546875 C-85.53274142 367.31138439 -89.95879468 362.93470284 -94.40625 358.53125 C-95.73154724 357.21163269 -95.73154724 357.21163269 -97.08361816 355.86535645 C-99.88665133 353.07445494 -102.69279916 350.28670768 -105.5 347.5 C-109.2010055 343.82601262 -112.89831822 340.14834398 -116.59375 336.46875 C-117.43248657 335.63831177 -118.27122314 334.80787354 -119.13537598 333.95227051 C-123.39092826 329.71433956 -127.46366085 325.3995988 -131.37878418 320.84606934 C-133.90767042 317.96644079 -136.61373542 315.28122105 -139.34375 312.59375 C-139.91653687 312.02474976 -140.48932373 311.45574951 -141.07946777 310.86950684 C-142.88385251 309.07717018 -144.6914736 307.28815684 -146.5 305.5 C-159.95958253 292.19201373 -159.95958253 292.19201373 -165.22412109 285.99853516 C-169.27826271 281.43609313 -173.7175475 277.22161302 -178.0625 272.9375 C-189.12544631 262.02889475 -189.12544631 262.02889475 -193.73950195 256.48461914 C-196.55572057 253.16766671 -199.74464288 250.23697141 -202.9296875 247.28125 C-203.91153094 246.35424356 -204.89330138 245.4271598 -205.875 244.5 C-206.38546875 244.03980469 -206.8959375 243.57960938 -207.421875 243.10546875 C-209.64393886 240.97348856 -210.95482088 239.67768685 -211.1640625 236.5390625 C-209.5631865 233.04721889 -207.16502061 230.57209994 -204.5 227.875 C-203.39976149 226.72642637 -202.30213388 225.57534645 -201.20703125 224.421875 C-200.66256348 223.84888672 -200.1180957 223.27589844 -199.55712891 222.68554688 C-197.31513416 220.25865259 -195.25047067 217.70460408 -193.1875 215.125 C-190.74629532 212.08335539 -188.30525702 209.20896674 -185.5 206.5 C-182.71494578 203.81032435 -180.29501384 200.96031728 -177.875 197.9375 C-173.18499463 192.10711661 -168.12483596 186.67785214 -163.0078125 181.22265625 C-160.1577443 178.18205669 -157.39511189 175.07651576 -154.671875 171.921875 C-152.64241927 169.58894926 -150.572353 167.29488755 -148.5 165 C-145.84886006 162.06321535 -143.21709829 159.11397458 -140.625 156.125 C-138.14962442 153.27717207 -135.6144409 150.49255167 -133.04956055 147.72509766 C-128.98629983 143.33942225 -125.05883605 138.91512658 -121.3125 134.25 C-118.04963243 130.19613423 -114.61842499 126.50787785 -110.890625 122.8828125 C-108.42942069 120.43177845 -106.17868527 117.8309379 -103.9140625 115.19921875 C-101.64845431 112.59608118 -99.32696448 110.04841276 -97 107.5 C-93.54671847 103.71337002 -90.13900949 99.8952368 -86.77734375 96.02734375 C-83.94445718 92.79598522 -81.05556133 89.61531919 -78.17578125 86.42578125 C-76.32556437 84.36297212 -74.50055191 82.2828763 -72.6875 80.1875 C-69.01558017 75.96778794 -65.20627187 71.87896889 -61.40307617 67.77807617 C-58.72628745 64.88670849 -56.0770391 61.98128052 -53.5 59 C-49.94004906 54.88162538 -46.2366879 50.89962543 -42.52539062 46.91796875 C-39.83066559 44.01817118 -37.18900446 41.08310947 -34.59375 38.09375 C-30.39457213 33.27161717 -26.00208659 28.64137801 -21.60546875 24 C-17.82185795 19.98921588 -14.14988544 15.9045806 -10.53564453 11.74072266 C-8.82837663 9.80545713 -7.04665303 7.97698922 -5.1875 6.1875 C-3.07716625 4.15443247 -1.65313906 2.47970859 0 0 Z " fill="#018151" transform="translate(350,306)"/>
<path d="M0 0 C2.90480936 1.189536 4.76309112 3.08481805 7.05126953 5.22631836 C7.80875488 5.93256348 7.80875488 5.93256348 8.58154297 6.65307617 C14.33370814 12.07148635 19.88838881 17.69788433 25.43066406 23.32958984 C28.7167528 26.6547205 32.00036029 29.90514451 35.56689453 32.92944336 C42.9142191 39.24734505 49.56106713 46.37233905 56.37207031 53.25512695 C65.4134692 62.42626727 65.4134692 62.42626727 74.96728516 71.05249023 C80.00592776 75.51844564 84.63664957 80.45223578 89.36279297 85.24584961 C90.77760666 86.67901242 92.19562651 88.10895103 93.61376953 89.53881836 C94.44263672 90.37928711 95.27150391 91.21975586 96.12548828 92.08569336 C98.28974859 94.17449131 100.47336724 96.14935831 102.74853516 98.11108398 C107.05637806 101.84856282 111.07511189 105.82759916 115.08251953 109.88256836 C115.82908813 110.63292358 116.57565674 111.38327881 117.34484863 112.15637207 C120.50328066 115.3309834 123.65566232 118.51157752 126.80859375 121.69165039 C129.12696699 124.02822197 131.44842473 126.36169835 133.77001953 128.69506836 C134.46921509 129.40256226 135.16841064 130.11005615 135.88879395 130.83898926 C139.77287866 134.7421011 143.76662572 138.42755096 147.93560791 142.02301025 C151.41643869 145.11066671 154.66503733 148.42540242 157.93408203 151.73413086 C159.02775589 152.83348465 159.02775589 152.83348465 160.14352417 153.95504761 C162.4485758 156.27219973 164.75033132 158.59258201 167.05126953 160.91381836 C170.09260312 163.9818582 173.1373094 167.04649335 176.18408203 170.10913086 C177.21554855 171.15304489 177.21554855 171.15304489 178.26785278 172.2180481 C181.12232745 175.08693065 183.96568441 177.89003496 187.09765625 180.45629883 C189.89871414 182.76609575 192.39126829 185.19113397 194.92626953 187.78881836 C196.14297184 189.01310934 197.36094487 190.23613811 198.57983398 191.45825195 C199.25436111 192.13600677 199.92888824 192.8137616 200.62385559 193.51205444 C203.68660225 196.58824489 206.75204992 199.66173787 209.81762695 202.73510742 C211.42725474 204.34976681 213.03598423 205.96532221 214.64379883 207.58178711 C216.9816451 209.93185334 219.32278617 212.27859488 221.66455078 214.62475586 C222.3731575 215.33852386 223.08176422 216.05229187 223.81184387 216.78768921 C227.81036949 220.78665638 231.90569342 224.60654501 236.19816589 228.28900146 C238.5380005 230.31973816 240.7398512 232.4698083 242.92626953 234.66381836 C243.68939453 235.42436523 244.45251953 236.18491211 245.23876953 236.96850586 C246.92626953 238.78881836 246.92626953 238.78881836 246.92626953 239.78881836 C83.57626953 239.78881836 -79.77373047 239.78881836 -248.07373047 239.78881836 C-242.07373047 232.78881836 -242.07373047 232.78881836 -239.13623047 230.35131836 C-236.73588785 228.34286841 -234.98652647 226.59083525 -233.01123047 224.22631836 C-230.05876413 220.76023366 -226.85073377 217.69577655 -223.47216797 214.65600586 C-214.60203358 206.56773766 -206.21093009 197.99851055 -197.76123047 189.47631836 C-194.60145789 186.2897383 -191.43822588 183.10664889 -188.27294922 179.92553711 C-187.56756516 179.21185471 -186.86218109 178.4981723 -186.13542175 177.76286316 C-182.21522621 173.82357353 -178.18619079 170.09674165 -173.9778595 166.46809387 C-171.00585364 163.84704426 -168.22848926 161.04831899 -165.44873047 158.22631836 C-164.85753418 157.63133545 -164.26633789 157.03635254 -163.65722656 156.42333984 C-161.79356547 154.54762179 -159.93322205 152.66866933 -158.07373047 150.78881836 C-144.376357 136.94147365 -144.376357 136.94147365 -138.23779297 131.73022461 C-132.60832541 126.67996219 -127.39050205 121.16380277 -122.07373047 115.78881836 C-108.31808079 101.88255937 -108.31808079 101.88255937 -102.17529297 96.66772461 C-96.90982155 91.96011912 -92.03678038 86.8107852 -87.07373047 81.78881836 C-74.44043867 69.00555532 -74.44043867 69.00555532 -68.21044922 63.70288086 C-62.93677976 58.97875283 -58.04887152 53.82301988 -53.07373047 48.78881836 C-40.32467155 35.88841391 -40.32467155 35.88841391 -34.08544922 30.57788086 C-29.5417787 26.53710202 -25.34157896 22.11759467 -21.07373047 17.78881836 C-10.6754242 7.24206584 -10.6754242 7.24206584 -5.63623047 2.53881836 C-4.74097656 1.69577148 -4.74097656 1.69577148 -3.82763672 0.83569336 C-2.07373047 -0.21118164 -2.07373047 -0.21118164 0 0 Z " fill="#DAFB5F" transform="translate(628.07373046875,305.211181640625)"/>
<path d="M0 0 C78.54 0 157.08 0 238 0 C235.77356881 3.71071865 234.31945598 5.92661883 231.38647461 8.82470703 C230.67240952 9.53539337 229.95834442 10.24607971 229.22264099 10.978302 C228.07409386 12.1066597 228.07409386 12.1066597 226.90234375 13.2578125 C226.11227432 14.04268036 225.3222049 14.82754822 224.50819397 15.63619995 C221.98934191 18.13727407 219.46389463 20.63154685 216.9375 23.125 C214.40841888 25.62645795 211.88081222 28.12936149 209.35609436 30.63522339 C207.78628071 32.19278609 206.21380152 33.74766779 204.63841248 35.29959106 C203.57204308 36.35616409 203.57204308 36.35616409 202.48413086 37.43408203 C201.54506142 38.36077194 201.54506142 38.36077194 200.58702087 39.30618286 C198.80371975 41.11663473 198.80371975 41.11663473 197 44 C196.34 44 195.68 44 195 44 C194.73108444 44.59455994 194.46216888 45.18911987 194.18510437 45.80169678 C192.99616157 48.00712007 191.81418854 49.42221096 190.03833008 51.17285156 C189.44043167 51.76737122 188.84253326 52.36189087 188.22651672 52.97442627 C187.58071152 53.60677185 186.93490631 54.23911743 186.26953125 54.890625 C185.60088547 55.55406921 184.93223969 56.21751343 184.24333191 56.90106201 C182.10441918 59.02218406 179.9589638 61.13652168 177.8125 63.25 C175.68471241 65.34999707 173.55846171 67.45149132 171.43522644 69.55609131 C170.11572591 70.86352544 168.79356395 72.16828143 167.46821594 73.4697876 C163.714716 77.18334063 160.19976721 81.02777875 156.75010681 85.02380371 C153.87425297 88.27117791 150.79746409 91.30593349 147.7109375 94.3515625 C147.04462311 95.01409027 146.37830872 95.67661804 145.69180298 96.35922241 C143.58864762 98.45029581 141.48225716 100.53806075 139.375 102.625 C136.58819586 105.38506916 133.80482042 108.14853152 131.0234375 110.9140625 C130.39311615 111.53608551 129.7627948 112.15810852 129.1133728 112.79898071 C126.31576454 115.5811271 123.65453638 118.36234291 121.18603516 121.44287109 C120.46464355 122.28672363 119.74325195 123.13057617 119 124 C118.34 124 117.68 124 117 124 C116.74433762 124.58130676 116.48867523 125.16261353 116.2252655 125.76153564 C114.87699384 128.22472265 113.39084403 129.84324446 111.39575195 131.81542969 C110.65770828 132.5500946 109.91966461 133.28475952 109.15925598 134.04168701 C108.36033432 134.82714905 107.56141266 135.61261108 106.73828125 136.421875 C105.91426315 137.24069153 105.09024506 138.05950806 104.24125671 138.90313721 C101.60303526 141.52354537 98.95825176 144.13719688 96.3125 146.75 C93.68542931 149.34933098 91.05986951 151.95014188 88.43730164 154.55401611 C86.80617276 156.17302512 85.17237885 157.78935517 83.53547668 159.40252686 C79.42043758 163.48191352 75.51064773 167.65036718 71.73210144 172.04180908 C68.68161715 175.49047005 65.39919436 178.70293455 62.125 181.9375 C61.03276123 183.02405884 61.03276123 183.02405884 59.91845703 184.13256836 C56.83943049 187.19542424 53.75441677 190.25222311 50.66992188 193.30957031 C48.40284542 195.55844117 46.13887034 197.81040238 43.875 200.0625 C43.18937988 200.73982178 42.50375977 201.41714355 41.79736328 202.11499023 C37.91339504 205.97944822 34.24461865 209.95886883 30.66607666 214.10684204 C28.16073006 216.95365994 25.49867876 219.62587699 22.8046875 222.29296875 C22.24935333 222.84688797 21.69401917 223.40080719 21.12185669 223.97151184 C19.37527741 225.7125771 17.62523442 227.45011 15.875 229.1875 C14.69637945 230.36109203 13.51799238 231.5349186 12.33984375 232.70898438 C10.1757538 234.86497675 8.01032396 237.01960277 5.84326172 239.17260742 C5.36472748 239.64881531 4.88619324 240.12502319 4.39315796 240.61566162 C3.05461454 241.94573121 1.71196249 243.27166212 0.36914062 244.59741211 C-1.78632502 246.78330838 -3.81805465 249.02372684 -5.8359375 251.3359375 C-12.45555964 258.73401624 -19.57322 265.6425493 -26.625 272.625 C-29.37019554 275.34334453 -32.11187432 278.06516866 -34.8515625 280.7890625 C-35.46528717 281.39448883 -36.07901184 281.99991516 -36.71133423 282.62368774 C-39.75557 285.65091053 -42.67539175 288.73216559 -45.48193359 291.98193359 C-48.96036408 296.00716086 -52.6527123 299.76414328 -56.4375 303.5 C-57.46315063 304.5199707 -57.46315063 304.5199707 -58.50952148 305.56054688 C-61.39737773 308.43225143 -64.29123075 311.29788438 -67.18457031 314.1640625 C-69.31265725 316.27392787 -71.43762917 318.38689645 -73.5625 320.5 C-74.20437256 321.13357422 -74.84624512 321.76714844 -75.50756836 322.41992188 C-78.62557045 325.52124581 -81.62507199 328.67109359 -84.5 332 C-87.97167571 336.01988623 -91.65873309 339.77008623 -95.4375 343.5 C-96.46315063 344.5199707 -96.46315063 344.5199707 -97.50952148 345.56054688 C-100.39737773 348.43225143 -103.29123075 351.29788438 -106.18457031 354.1640625 C-108.31265725 356.27392787 -110.43762917 358.38689645 -112.5625 360.5 C-113.20437256 361.13357422 -113.84624512 361.76714844 -114.50756836 362.41992188 C-117.59855124 365.49437113 -120.57265509 368.61390423 -123.41796875 371.91796875 C-127.31797258 376.43330288 -131.51013915 380.61814828 -135.75 384.8125 C-136.97541504 386.03223511 -136.97541504 386.03223511 -138.22558594 387.27661133 C-141.68695042 390.7217734 -145.15428591 394.1609029 -148.62109375 397.60058594 C-151.16615188 400.12746508 -153.70813131 402.65741315 -156.25 405.1875 C-157.40967285 406.33472534 -157.40967285 406.33472534 -158.59277344 407.50512695 C-162.65332359 411.54749421 -166.51008754 415.68278081 -170.24829102 420.0234375 C-173.37613582 423.55277987 -176.74072576 426.84255407 -180.09375 430.15625 C-180.84410522 430.9028186 -181.59446045 431.64938721 -182.36755371 432.4185791 C-185.54216504 435.57701112 -188.72275916 438.72939279 -191.90283203 441.88232422 C-194.23940361 444.20069745 -196.57287999 446.5221552 -198.90625 448.84375 C-199.6137439 449.54294556 -200.32123779 450.24214111 -201.0501709 450.96252441 C-205.03322838 454.92616506 -208.81133849 458.99975603 -212.48034668 463.25549316 C-214.22213227 465.25499978 -216.04407646 467.14386489 -217.9375 469 C-218.60523438 469.66 -219.27296875 470.32 -219.9609375 471 C-221.3203125 472.33333333 -222.6796875 473.66666667 -224.0390625 475 C-228.03022714 478.94493493 -231.81087298 482.9940727 -235.47314453 487.24609375 C-237.21651864 489.248716 -239.04098867 491.14219298 -240.9375 493 C-241.81728516 493.86625 -241.81728516 493.86625 -242.71484375 494.75 C-243.13894531 495.1625 -243.56304688 495.575 -244 496 C-245 493 -245 493 -243.6640625 490.3125 C-242.65472656 488.6728125 -242.65472656 488.6728125 -241.625 487 C-237.64151759 480.36145823 -234.29507564 473.51561758 -231.05908203 466.48632812 C-229.21933964 462.50535546 -227.27697531 458.75236237 -225 455 C-223.39517773 451.91683134 -221.85409998 448.80266296 -220.3125 445.6875 C-219.89677734 444.85154297 -219.48105469 444.01558594 -219.05273438 443.15429688 C-218.03332675 441.1037643 -217.0158067 439.05231815 -216 437 C-215.34 437 -214.68 437 -214 437 C-213.42572266 435.11861328 -213.42572266 435.11861328 -212.83984375 433.19921875 C-210.92836382 427.47150558 -208.29502811 422.18610616 -205.5625 416.8125 C-205.08490234 415.85408203 -204.60730469 414.89566406 -204.11523438 413.90820312 C-201.66282689 409.04039293 -199.08405405 404.48840009 -196 400 C-194.98034573 397.67518826 -193.97940398 395.34205301 -193 393 C-192 391.33333333 -191 389.66666667 -190 388 C-189.26036191 386.29561657 -188.52214065 384.59047026 -187.80859375 382.875 C-186.35713757 379.50930452 -184.66006216 376.26638131 -183 373 C-182.2489195 371.50054073 -181.49899447 370.00050234 -180.75 368.5 C-179.22267857 365.4406721 -177.68984896 362.38427683 -176.1484375 359.33203125 C-172.82913865 352.74463723 -169.57423314 346.1431545 -166.5 339.4375 C-164.19590425 334.41455815 -161.71449879 329.5351638 -159.0625 324.6875 C-156.17432822 319.39689443 -153.63332808 314.03537288 -151.25 308.5 C-147.65469175 300.15423868 -143.51807806 292.14247391 -139.21191406 284.14257812 C-136.43901198 278.94865578 -134.03788656 273.7751282 -131.92089844 268.28222656 C-130.59375475 264.99321828 -128.96304076 261.98254087 -127.25 258.875 C-126.54521339 257.57902725 -125.84214329 256.28211982 -125.140625 254.984375 C-124.78548828 254.32759766 -124.43035156 253.67082031 -124.06445312 252.99414062 C-119.05260242 243.60496711 -114.49262116 233.9850353 -109.9934082 224.34277344 C-107.7964355 219.64892551 -105.52404823 215.00079792 -103.1875 210.375 C-99.41015986 202.89586651 -95.79356464 195.34365493 -92.20776367 187.77099609 C-88.68810138 180.36194522 -85.03411596 173.02391522 -81.35284424 165.69439697 C-76.82453699 156.67557796 -72.30647923 147.65160541 -67.78801537 138.62785149 C-66.07142494 135.1998456 -64.35407662 131.77222375 -62.63500977 128.34545898 C-55.64186866 114.40410092 -48.67972162 100.45444905 -41.98808289 86.36497498 C-36.08350008 73.93744377 -29.98000724 61.60692246 -23.90673828 49.26123047 C-16.86196781 34.93592656 -9.89016739 20.57951466 -3.03845215 6.1607666 C-2.0466027 4.0969689 -1.02401429 2.04802857 0 0 Z " fill="#018260" transform="translate(876,546)"/>
<path d="M0 0 C1.24795087 0.00056958 1.24795087 0.00056958 2.52111286 0.00115067 C3.4775543 -0.00084038 4.43399573 -0.00283143 5.41942024 -0.00488281 C6.48262723 -0.00196997 7.54583423 0.00094287 8.64125961 0.00394398 C9.76100738 0.00308955 10.88075515 0.00223513 12.03443468 0.00135481 C15.81789718 -0.00030326 19.60131615 0.00522672 23.38477463 0.01067311 C26.08439548 0.01151049 28.78401546 0.01084145 31.48363632 0.0102306 C37.31186834 0.00970517 43.14008919 0.01285396 48.9683184 0.01846844 C57.39505367 0.02658087 65.82178352 0.02919839 74.24852227 0.03045643 C87.91894279 0.03264736 101.58935735 0.03930854 115.25977463 0.04875904 C128.54265193 0.05793211 141.82552761 0.06501346 155.10840744 0.06926686 C155.9265815 0.06952958 156.74475557 0.0697923 157.58772279 0.07006299 C161.69208766 0.07136798 165.79645256 0.0726317 169.90081745 0.07387489 C203.97351778 0.08424877 238.0462109 0.10186818 272.11890548 0.1241985 C271.16089506 1.25395161 270.20117575 2.38225579 269.24073166 3.50994068 C268.70647064 4.13841908 268.17220962 4.76689747 267.62175888 5.41442066 C266.00960111 7.24855274 264.32088947 8.82864306 262.43140548 10.3741985 C257.02387088 14.97985535 252.1014296 20.07054386 247.11890548 25.1241985 C236.61089054 35.7822259 236.61089054 35.7822259 232.24390548 39.4991985 C226.19412851 44.67416047 220.71079804 50.46592394 215.11890548 56.1241985 C202.48561369 68.90746153 202.48561369 68.90746153 196.25562423 74.210136 C190.98195478 78.93426403 186.09404654 84.08999698 181.11890548 89.1241985 C168.48414726 101.90894538 168.48414726 101.90894538 164.18140548 105.5616985 C157.78681821 111.00447089 152.01953156 117.15896702 146.11890548 123.1241985 C132.42153202 136.9715432 132.42153202 136.9715432 126.28296798 142.18279225 C120.65350042 147.23305466 115.43567707 152.74921409 110.11890548 158.1241985 C107.66359775 160.60638916 105.20479702 163.08504492 102.74390548 165.5616985 C101.92478683 166.39326466 101.92478683 166.39326466 101.08912033 167.24163014 C98.23677947 170.11160991 95.32229195 172.8468116 92.25562423 175.48747975 C87.72441381 179.40842796 83.51886604 183.61603233 79.30640548 187.8741985 C78.49324875 188.69114186 77.68009201 189.50808522 76.84229416 190.34978443 C74.26537251 192.9388252 71.69172923 195.53108586 69.11890548 198.1241985 C65.72603395 201.54382568 62.32975891 204.96001998 58.93140548 208.3741985 C58.16658859 209.14731373 57.4017717 209.92042897 56.61377853 210.71697193 C52.46819381 214.88120383 48.23952661 218.85867067 43.75440353 222.65642506 C41.95058422 224.19459413 41.95058422 224.19459413 40.11890548 226.6241985 C37.70840577 229.63732314 34.95702707 231.9851395 32.02124923 234.475761 C30.31937042 235.95048966 28.71126477 237.53183922 27.11890548 239.1241985 C190.46890548 239.1241985 353.81890548 239.1241985 522.11890548 239.1241985 C522.11890548 239.7841985 522.11890548 240.4441985 522.11890548 241.1241985 C358.10890548 241.1241985 194.09890548 241.1241985 25.11890548 241.1241985 C23.43057427 229.86865707 21.83715675 218.85657761 20.64527267 207.58098561 C20.14429163 203.11138309 19.43404783 198.68887691 18.69703048 194.25310475 C17.26995431 185.42183797 16.15132062 176.57846712 15.156259 167.68932301 C14.63706522 163.05462523 14.10299168 158.42162266 13.57203048 153.788261 C13.45802902 152.78993244 13.34402755 151.79160389 13.2265715 150.76302296 C11.72933353 137.67054007 10.17349337 124.58497346 8.61890548 111.4991985 C8.4694548 110.24054981 8.32000412 108.98190113 8.16602463 107.68511158 C6.35449158 92.43502089 4.53496738 77.18590773 2.68100876 61.94090992 C2.47442988 60.24202238 2.26822722 58.54308905 2.06241745 56.84410816 C1.14276047 49.2578043 0.21295417 41.67589083 -0.85375077 34.1085735 C-2.40593329 23.08911697 -3.63374705 12.26924565 -2.88109452 1.1241985 C-1.88109452 0.1241985 -1.88109452 0.1241985 0 0 Z " fill="#4BE04E" transform="translate(353.88109451532364,304.8758015036583)"/>
<path d="M0 0 C0.71414063 0.71542969 1.42828125 1.43085938 2.1640625 2.16796875 C3.98554339 3.99009056 5.81444996 5.80363867 7.6484375 7.61328125 C8.54820312 8.50402344 9.44796875 9.39476562 10.375 10.3125 C11.71691406 11.63701172 11.71691406 11.63701172 13.0859375 12.98828125 C15.9048066 15.84114774 18.51379429 18.85727267 21.13916016 21.88745117 C24.33245292 25.51268894 27.67147566 28.99931061 31 32.5 C35.53598727 37.2706073 39.98127864 42.08839529 44.29394531 47.06201172 C47.07457259 50.22065787 49.98025383 53.25883137 52.875 56.3125 C57.82733049 61.56836888 62.47702757 66.93559377 66.984375 72.578125 C69.51837002 75.6228477 72.2759629 78.36181559 75.11328125 81.12109375 C77.5538796 83.5515861 79.78131202 86.13290235 82.02734375 88.7421875 C84.43201516 91.49446488 86.89991795 94.1862632 89.375 96.875 C94.28819384 102.21611987 99.15379501 107.59795788 104 113 C105.49971128 114.66692647 106.99971321 116.33359149 108.5 118 C109.60988281 119.23363281 109.60988281 119.23363281 110.7421875 120.4921875 C112.26708244 122.18592894 113.79315402 123.87861169 115.3203125 125.5703125 C119.31489899 129.99821006 123.27734092 134.44957552 127.1953125 138.9453125 C130.75638173 142.99969003 134.3834804 146.9951293 138 151 C142.76786975 156.27985576 147.51512218 161.57291806 152.1875 166.9375 C154.27211164 169.30964429 156.38428644 171.65556065 158.5 174 C161.76704335 177.62023723 164.99520776 181.26983565 168.1953125 184.94921875 C170.22958141 187.26088797 172.3022231 189.5353143 174.375 191.8125 C177.46636801 195.23229328 180.42459032 198.71958524 183.3125 202.3125 C186.72421668 206.53397841 190.29308723 210.54082096 194 214.5 C199.27000157 220.1313731 204.2300645 225.9337763 209 232 C209.59683594 232.67933594 210.19367188 233.35867188 210.80859375 234.05859375 C211.39833984 235.01958984 211.39833984 235.01958984 212 236 C211.67 237.32 211.34 238.64 211 240 C132.13 240 53.26 240 -28 240 C-25.67794026 218.52094738 -23.32766111 197.12778138 -20.49029541 175.72424316 C-19.00574513 164.44772269 -17.60288352 153.16037266 -16.1875 141.875 C-16.10344406 141.20500095 -16.01938812 140.53500191 -15.93278503 139.84469986 C-12.32932901 111.10621927 -8.99275634 82.34115008 -5.74316406 53.56054688 C-5.07488922 47.64866975 -4.39568359 41.73811441 -3.7109375 35.828125 C-3.52178972 34.19181548 -3.33266124 32.55550374 -3.14355469 30.91918945 C-2.89104456 28.73470962 -2.63815277 26.55028048 -2.38342285 24.36605835 C-1.4380626 16.25313714 -0.62165405 8.14441929 0 0 Z " fill="#03C755" transform="translate(904,306)"/>
<path d="M0 0 C0.33 0 0.66 0 1 0 C1.03013184 0.8863916 1.06026367 1.7727832 1.09130859 2.68603516 C1.69938931 15.96762662 3.39119732 29.08218077 5.09432983 42.26138306 C5.91883247 48.64171224 6.72444353 55.02444348 7.53149223 61.40699959 C7.71660481 62.87042753 7.90191471 64.33383052 8.08741951 65.79720879 C10.03056743 81.12671115 11.87627822 96.46681805 13.6875 111.8125 C13.83178436 113.03218475 13.97606873 114.25186951 14.12472534 115.5085144 C15.57297263 127.75588171 17.00542633 140.00492771 18.40625 152.2578125 C18.83281188 155.98443495 19.25981991 159.71100571 19.6875 163.4375 C19.78829865 164.31610687 19.88909729 165.19471375 19.99295044 166.09994507 C21.3522765 177.90586944 22.87558075 189.67032558 24.61303711 201.42749023 C25.77048313 209.27266771 26.80238274 217.12669977 27.75 225 C27.87777832 226.05203613 28.00555664 227.10407227 28.13720703 228.18798828 C28.60847331 232.17486121 29 235.97799494 29 240 C-49.87 240 -128.74 240 -210 240 C-210.33 238.35 -210.66 236.7 -211 235 C-209.11498757 232.54524105 -207.31380034 230.52544728 -205.125 228.375 C-203.91400727 227.13410016 -202.70569008 225.8905839 -201.5 224.64453125 C-200.901875 224.0304541 -200.30375 223.41637695 -199.6875 222.78369141 C-197.35054556 220.31352515 -195.24411158 217.72242652 -193.125 215.0625 C-190.19547119 211.40325219 -187.15589738 208.09918856 -183.7890625 204.84765625 C-181.66388995 202.65288198 -179.78433867 200.32243758 -177.875 197.9375 C-173.18499463 192.10711661 -168.12483596 186.67785214 -163.0078125 181.22265625 C-160.1577443 178.18205669 -157.39511189 175.07651576 -154.671875 171.921875 C-152.64241927 169.58894926 -150.572353 167.29488755 -148.5 165 C-145.84886006 162.06321535 -143.21709829 159.11397458 -140.625 156.125 C-138.14962442 153.27717207 -135.6144409 150.49255167 -133.04956055 147.72509766 C-128.98629983 143.33942225 -125.05883605 138.91512658 -121.3125 134.25 C-118.04963243 130.19613423 -114.61842499 126.50787785 -110.890625 122.8828125 C-108.42942069 120.43177845 -106.17868527 117.8309379 -103.9140625 115.19921875 C-101.64845431 112.59608118 -99.32696448 110.04841276 -97 107.5 C-93.54671847 103.71337002 -90.13900949 99.8952368 -86.77734375 96.02734375 C-83.94445718 92.79598522 -81.05556133 89.61531919 -78.17578125 86.42578125 C-76.32556437 84.36297212 -74.50055191 82.2828763 -72.6875 80.1875 C-69.01558017 75.96778794 -65.20627187 71.87896889 -61.40307617 67.77807617 C-58.72628745 64.88670849 -56.0770391 61.98128052 -53.5 59 C-49.94004906 54.88162538 -46.2366879 50.89962543 -42.52539062 46.91796875 C-39.83066559 44.01817118 -37.18900446 41.08310947 -34.59375 38.09375 C-30.39457213 33.27161717 -26.00208659 28.64137801 -21.60546875 24 C-17.82185795 19.98921588 -14.14988544 15.9045806 -10.53564453 11.74072266 C-8.82837663 9.80545713 -7.04665303 7.97698922 -5.1875 6.1875 C-3.07716625 4.15443247 -1.65313906 2.47970859 0 0 Z " fill="#02CF57" transform="translate(350,306)"/>
<path d="M0 0 C0.33 0 0.66 0 1 0 C1 82.17 1 164.34 1 249 C-80.51 249 -162.02 249 -246 249 C-243.02860162 247.01906775 -241.95602509 246.67703325 -238.5625 246.2890625 C-237.67747803 246.18102295 -236.79245605 246.0729834 -235.88061523 245.96166992 C-234.93001221 245.85056885 -233.97940918 245.73946777 -233 245.625 C-201.21343642 241.56564884 -171.26532416 232.16972484 -143 217 C-142.31679687 216.63374512 -141.63359375 216.26749023 -140.9296875 215.89013672 C-129.15257729 209.52626005 -118.51649493 202.22133331 -107.859375 194.11328125 C-105.87183149 192.6443454 -103.84146533 191.23233018 -101.78125 189.8671875 C-98.75942639 187.83849131 -96.54653294 185.60440869 -94 183 C-92.58807863 181.74464249 -91.17065124 180.49546959 -89.75 179.25 C-77.35353319 168.11356271 -65.90092346 156.41376629 -56 143 C-55.18240435 141.91429774 -54.36340763 140.82964905 -53.54296875 139.74609375 C-52.01831302 137.7258617 -50.50088468 135.70014626 -48.9921875 133.66796875 C-47.78617096 132.05285248 -46.56604379 130.44796734 -45.3203125 128.86328125 C-41.85944781 124.44305769 -39.16548111 119.84480909 -36.55078125 114.87890625 C-35.04323547 112.08026332 -33.41373523 109.39545313 -31.75 106.6875 C-12.6805493 73.87128044 -4.2693307 37.33936427 0 0 Z " fill="#000000" transform="translate(1253,1005)"/>
<path d="M0 0 C0.33 0 0.66 0 1 0 C1.06058594 0.91523437 1.12117187 1.83046875 1.18359375 2.7734375 C1.26738281 3.96195313 1.35117187 5.15046875 1.4375 6.375 C1.51871094 7.55835938 1.59992187 8.74171875 1.68359375 9.9609375 C1.81084936 12.91518901 1.81084936 12.91518901 3 15 C3.31175544 17.10434922 3.61888156 19.20952344 3.89868164 21.31835938 C7.61969019 49.0591375 17.00749044 76.24342962 30 101 C30.48218994 101.92111572 30.48218994 101.92111572 30.97412109 102.86083984 C38.29849953 116.64188712 47.16538351 129.8916421 57 142 C60 145.74477958 60 145.74477958 60 148 C60.66 148 61.32 148 62 148 C63.22052389 149.41356594 64.3730238 150.88578145 65.5 152.375 C70.10088315 158.14496001 75.15198051 163.35298474 80.375 168.5625 C81.17228516 169.36026855 81.96957031 170.15803711 82.79101562 170.97998047 C87.13577835 175.30028184 87.13577835 175.30028184 92 179 C92 179.66 92 180.32 92 181 C92.86625 181.37125 92.86625 181.37125 93.75 181.75 C96.29879381 183.16599656 97.94723215 184.94723215 100 187 C100.99 187.33 101.98 187.66 103 188 C104.15535792 189.17433278 105.3088465 190.3505837 106.45117188 191.53759766 C109.57411053 194.48627397 113.19889284 196.78963362 116.75 199.1875 C117.58764893 199.75557373 118.42529785 200.32364746 119.28833008 200.90893555 C144.09360263 217.56500632 170.94891039 230.63518142 200 238 C201.43617676 238.36520752 201.43617676 238.36520752 202.90136719 238.73779297 C217.84251746 242.47886451 232.69863996 245.25214925 248 247 C248 247.33 248 247.66 248 248 C166.16 248 84.32 248 0 248 C0 166.16 0 84.32 0 0 Z " fill="#000000" transform="translate(0,1006)"/>
<path d="M0 0 C81.51 0 163.02 0 247 0 C247 0.33 247 0.66 247 1 C245.95070312 1.0515625 244.90140625 1.103125 243.8203125 1.15625 C232.03301748 1.94815792 220.77556876 4.20736266 209.3125 6.9375 C208.57316223 7.11249023 207.83382446 7.28748047 207.07208252 7.46777344 C165.7272123 17.31217208 127.91125258 37.04640929 96 65 C95.21882813 65.66902344 94.43765625 66.33804688 93.6328125 67.02734375 C80.80052052 78.23894833 68.31945998 90.42176319 58 104 C57.0031214 105.24754969 56.00425886 106.49351548 55.00390625 107.73828125 C43.49167775 122.21830489 33.98780657 137.91314782 26.11230469 154.6496582 C25.22813749 156.51793687 24.32319678 158.37638147 23.41113281 160.23120117 C18.9073483 169.49041756 15.41963225 178.8586358 12.375 188.6875 C12.13976624 189.43758331 11.90453247 190.18766663 11.66217041 190.96047974 C5.94323995 209.31160245 2.34420164 227.79681272 1 247 C0.67 247 0.34 247 0 247 C0 165.49 0 83.98 0 0 Z " fill="#000000" transform="translate(0,0)"/>
<path d="M0 0 C81.51 0 163.02 0 247 0 C247 81.51 247 163.02 247 247 C246.67 247 246.34 247 246 247 C245.92523437 245.88109375 245.85046875 244.7621875 245.7734375 243.609375 C244.95041367 233.050226 243.33203875 222.79751865 241.125 212.4375 C240.75834229 210.69194824 240.75834229 210.69194824 240.38427734 208.91113281 C238.98237552 202.54017677 237.25609639 196.48270529 234.89941406 190.39770508 C234.01426143 188.03801888 233.29801014 185.67769135 232.625 183.25 C223.98032869 154.193042 207.551953 127.70489561 189 104 C188.24589844 103.03191406 187.49179688 102.06382813 186.71484375 101.06640625 C184.8359529 98.68792592 182.93159885 96.33578804 181 94 C180.47664063 93.36449219 179.95328125 92.72898437 179.4140625 92.07421875 C171.2363591 82.44048523 162.19030424 73.56537117 152.14453125 65.90234375 C150 64 150 64 149.01171875 61.87890625 C147.57555734 59.21174934 145.79209546 59.02129745 143 58 C141.50006768 56.88732293 140.04367336 55.71458351 138.625 54.5 C99.44386786 22.44797918 49.61371805 6.48315601 0 1 C0 0.67 0 0.34 0 0 Z " fill="#000000" transform="translate(1007,0)"/>
<path d="M0 0 C1.98 1.98 1.98 1.98 4 4 C-32.85917571 4.02287957 -69.71835036 4.04050495 -106.57753174 4.05106533 C-110.9272575 4.05231606 -115.27698324 4.05361038 -119.62670898 4.05493164 C-120.49267572 4.05519395 -121.35864245 4.05545626 -122.2508506 4.05572652 C-136.27983735 4.06008003 -150.30882001 4.06796584 -164.33780434 4.0771528 C-178.72853615 4.08649818 -193.11926581 4.09205749 -207.51000053 4.09408849 C-216.3927039 4.09546188 -225.2753957 4.09980253 -234.15809552 4.10791647 C-240.24597582 4.11319482 -246.33385014 4.1148018 -252.42173257 4.11350138 C-255.93619736 4.11285971 -259.45064193 4.11385626 -262.96510315 4.11920547 C-266.77314495 4.1249593 -270.58116025 4.12299215 -274.38920593 4.12025452 C-276.05992213 4.12462378 -276.05992213 4.12462378 -277.76439017 4.12908131 C-279.29460011 4.12609474 -279.29460011 4.12609474 -280.85572338 4.12304783 C-281.73477595 4.12342755 -282.61382851 4.12380727 -283.51951903 4.1241985 C-286.09810056 3.99508807 -288.48466648 3.56843353 -291 3 C-291 2.67 -291 2.34 -291 2 C-290.08760985 2.00113916 -290.08760985 2.00113916 -289.15678757 2.00230134 C-253.13276509 2.04702541 -217.1087467 2.08135688 -181.08470215 2.10213066 C-176.76244136 2.10463217 -172.44018063 2.10722081 -168.11791992 2.10986328 C-167.2574098 2.1103879 -166.39689968 2.11091252 -165.51031349 2.11145304 C-151.56403389 2.12016349 -137.61777072 2.13593698 -123.67150088 2.15430559 C-109.36892047 2.17298685 -95.06634869 2.18411296 -80.76375657 2.18817699 C-71.93323828 2.19092574 -63.10276643 2.1996177 -54.27226243 2.21583293 C-48.22270451 2.22637794 -42.17317071 2.22960628 -36.12360426 2.22700275 C-32.62961597 2.22571758 -29.13570902 2.22773318 -25.64173508 2.23841095 C-21.85920983 2.24829401 -18.07688678 2.24599319 -14.2943573 2.24050903 C-13.18250271 2.24633472 -12.07064813 2.2521604 -10.92510098 2.25816262 C-9.91590991 2.25418052 -8.90671884 2.25019842 -7.86694622 2.24609566 C-6.99320974 2.2468551 -6.11947326 2.24761454 -5.21925992 2.24839699 C-2.71248167 2.13960895 -2.71248167 2.13960895 0 0 Z " fill="#D5FC51" transform="translate(871,541)"/>
<path d="M0 0 C0.99 0.33 1.98 0.66 3 1 C0.50434749 3.52516805 -1.99732451 6.04429373 -4.5 8.5625 C-5.19609375 9.26697266 -5.8921875 9.97144531 -6.609375 10.69726562 C-12.86167899 16.97851547 -19.47515013 22.75335172 -26.26171875 28.4453125 C-28.60084227 30.53738252 -30.78656008 32.77695962 -33 35 C-34.10693035 36.10742506 -35.2141242 37.21458679 -36.3215332 38.3215332 C-36.92177811 38.92177811 -37.52202301 39.52202301 -38.14045715 40.14045715 C-46.42697144 48.42697144 -54.71348572 56.71348572 -63 65 C-63.66 64.67 -64.32 64.34 -65 64 C-59.53467721 58.51138028 -54.06656183 53.02555908 -48.59498596 47.54317379 C-46.05367641 44.99667306 -43.51329395 42.44926235 -40.97509766 39.8996582 C-38.51992136 37.43351795 -36.06222208 34.96991699 -33.60284424 32.507967 C-32.22098095 31.12339044 -30.84165925 29.73627877 -29.46240234 28.34910583 C-24.9915939 23.87790486 -20.4614816 19.55748901 -15.6640625 15.43821716 C-13.74938645 13.78339954 -11.93693425 12.05171246 -10.15625 10.25390625 C-9.55039062 9.64482422 -8.94453125 9.03574219 -8.3203125 8.40820312 C-7.71960938 7.79912109 -7.11890625 7.19003906 -6.5 6.5625 C-5.86835938 5.92634766 -5.23671875 5.29019531 -4.5859375 4.63476562 C-3.05494226 3.09217194 -1.52712333 1.54642686 0 0 Z M-66 65 C-65.67 65.66 -65.34 66.32 -65 67 C-65.66 67 -66.32 67 -67 67 C-67 67.66 -67 68.32 -67 69 C-67.66 69 -68.32 69 -69 69 C-69.25378418 69.57975586 -69.50756836 70.15951172 -69.76904297 70.75683594 C-71.13758615 73.25072223 -72.66997769 74.89743836 -74.6953125 76.890625 C-75.76845703 77.95410156 -75.76845703 77.95410156 -76.86328125 79.0390625 C-77.60964844 79.76867187 -78.35601562 80.49828125 -79.125 81.25 C-79.87910156 81.99507812 -80.63320313 82.74015625 -81.41015625 83.5078125 C-83.26900772 85.3431342 -85.13237005 87.1736191 -87 89 C-87.99 88.67 -88.98 88.34 -90 88 C-80 78 -80 78 -77.3984375 75.40234375 C-75.94387875 73.94541601 -74.49345674 72.48432069 -73.05078125 71.015625 C-72.47714844 70.43296875 -71.90351563 69.8503125 -71.3125 69.25 C-70.44044922 68.36054687 -70.44044922 68.36054687 -69.55078125 67.453125 C-68 66 -68 66 -66 65 Z " fill="#E4FA73" transform="translate(470,456)"/>
<path d="M0 0 C45.21 0 90.42 0 137 0 C137 0.33 137 0.66 137 1 C136.30701152 1.00238835 135.61402304 1.00477671 134.9000349 1.00723743 C118.04991401 1.06633432 101.19995525 1.14185005 84.34999371 1.23571491 C76.20152261 1.28070969 68.05309559 1.32011576 59.90454102 1.34643555 C52.80351575 1.36938592 45.7026295 1.40275052 38.60171443 1.44870156 C34.84066843 1.47267399 31.07976046 1.4913763 27.31863976 1.49761391 C23.12327763 1.50476658 18.92839691 1.53516611 14.7331543 1.56762695 C13.48159042 1.56619186 12.23002655 1.56475677 10.9405365 1.5632782 C9.80050171 1.57581635 8.66046692 1.58835449 7.48588562 1.60127258 C6.49311458 1.60588155 5.50034353 1.61049051 4.47748852 1.61523914 C1.63383774 2.05686602 0.74808255 2.7715935 -1 5 C-0.67 3.35 -0.34 1.7 0 0 Z " fill="#60F254" transform="translate(352,305)"/>
<path d="M0 0 C27.06 0 54.12 0 82 0 C80.68 1.65 79.36 3.3 78 5 C77.34 5 76.68 5 76 5 C76 3.68 76 2.36 76 1 C75.36360596 1.0707373 74.72721191 1.14147461 74.0715332 1.21435547 C64.11046266 2.19114981 54.18456962 2.15309725 44.1875 2.125 C42.83194504 2.12367065 42.83194504 2.12367065 41.44900513 2.12231445 C27.60953831 2.10636206 13.81712461 1.84195754 0 1 C0 0.67 0 0.34 0 0 Z " fill="#39E256" transform="translate(544,305)"/>
<path d="M0 0 C5.68454786 2.34069618 9.11869085 7.42273197 13 12 C13.64453125 12.75796875 14.2890625 13.5159375 14.953125 14.296875 C18.10078193 18.20938315 18.10078193 18.20938315 19 20 C18.6484375 22.2265625 18.6484375 22.2265625 18 24 C15.2915983 24.02714434 12.58347279 24.04690846 9.875 24.0625 C9.11445312 24.07087891 8.35390625 24.07925781 7.5703125 24.08789062 C3.2610356 24.10646509 -0.75516474 23.86117265 -5 23 C-5 22.67 -5 22.34 -5 22 C-4.14277344 22.01160156 -3.28554687 22.02320313 -2.40234375 22.03515625 C3.50860552 22.0818041 9.18156704 22.08249916 15 21 C14.67 20.01 14.34 19.02 14 18 C13.34 17.67 12.68 17.34 12 17 C11.731875 16.21625 11.46375 15.4325 11.1875 14.625 C9.70652498 11.35126575 8.02851014 10.78604444 5 9 C4.4375 7.125 4.4375 7.125 4 5 C2.71937515 3.2925002 1.3927289 1.61736259 0 0 Z " fill="#09D754" transform="translate(1097,522)"/>
<path d="M0 0 C0 3 0 3 -1.72827148 5.05297852 C-2.51790283 5.82053467 -3.30753418 6.58809082 -4.12109375 7.37890625 C-5.40016602 8.63670898 -5.40016602 8.63670898 -6.70507812 9.91992188 C-7.60677734 10.79197266 -8.50847656 11.66402344 -9.4375 12.5625 C-11.20909577 14.2908551 -12.9787305 16.02122334 -14.74609375 17.75390625 C-15.53685303 18.52033447 -16.3276123 19.2867627 -17.14233398 20.07641602 C-19.05957019 21.86943706 -19.05957019 21.86943706 -20 24 C-21.66279327 25.0064275 -23.32983484 26.00585407 -25 27 C-26.75149165 28.58245275 -26.75149165 28.58245275 -28 30 C-28.66 29.67 -29.32 29.34 -30 29 C-26.5344258 25.5096035 -23.06550127 22.02258345 -19.59350586 18.53857422 C-18.4142059 17.35426284 -17.23580721 16.16905325 -16.05834961 14.98291016 C-14.36030639 13.27266113 -12.65898841 11.56572805 -10.95703125 9.859375 C-10.43599319 9.33317566 -9.91495514 8.80697632 -9.37812805 8.26483154 C-6.40132739 5.28758133 -3.33919174 2.56407012 0 0 Z " fill="#E3FA72" transform="translate(559,370)"/>
<path d="M0 0 C0 3 0 3 -1.5390625 4.8671875 C-2.22742188 5.52976562 -2.91578125 6.19234375 -3.625 6.875 C-4.35589844 7.58011719 -5.08679688 8.28523438 -5.83984375 9.01171875 C-8.48479669 11.44622335 -11.22348164 13.7170849 -14 16 C-16.6251675 18.50015952 -18.96102472 20.94988893 -21.1875 23.8125 C-21.785625 24.534375 -22.38375 25.25625 -23 26 C-23.66 26 -24.32 26 -25 26 C-25 26.66 -25 27.32 -25 28 C-27 29.625 -27 29.625 -29 31 C-29.66 30.67 -30.32 30.34 -31 30 C-27.23125542 26.20649113 -23.4592037 22.41631315 -19.68408203 18.62915039 C-18.40094596 17.34099321 -17.11870985 16.05193893 -15.83740234 14.76196289 C-13.99293497 12.90533262 -12.1452292 11.05197857 -10.296875 9.19921875 C-9.7269281 8.62411057 -9.1569812 8.04900238 -8.56976318 7.45646667 C-5.8478557 4.73417865 -3.17737805 2.20050331 0 0 Z " fill="#E1F975" transform="translate(592,338)"/>
<path d="M0 0 C0 0.66 0 1.32 0 2 C-1.609375 3.515625 -1.609375 3.515625 -3.75 5.25 C-7.23272422 8.19927878 -9.57801625 11.10752611 -12 15 C-13.29103643 16.3743291 -14.6256709 17.70896357 -16 19 C-16.9075 19.9075 -17.815 20.815 -18.75 21.75 C-19.86375 22.86375 -19.86375 22.86375 -21 24 C-21.33 23.01 -21.66 22.02 -22 21 C-21.21496094 20.154375 -20.42992187 19.30875 -19.62109375 18.4375 C-18.55981677 17.2917399 -17.49862445 16.14590137 -16.4375 15 C-15.61584351 14.11501831 -15.61584351 14.11501831 -14.77758789 13.2121582 C-11.19337996 9.33778245 -7.72626482 5.39500875 -4.40234375 1.29296875 C-3 0 -3 0 0 0 Z " fill="#04E658" transform="translate(162,519)"/>
<path d="M0 0 C0.66 0.33 1.32 0.66 2 1 C0.33146426 2.90689799 -1.33737749 4.81351488 -3.0078125 6.71875 C-4.25860579 8.15103094 -5.5042146 9.58787353 -6.7421875 11.03125 C-10.94793033 15.91533845 -15.3893986 20.4971789 -20 25 C-20 20.83048082 -18.27042164 19.80585535 -15.4375 16.8125 C-14.51758095 15.83003364 -13.59831406 14.84695623 -12.6796875 13.86328125 C-11.35324219 12.44595703 -11.35324219 12.44595703 -10 11 C-8.14180139 8.89838423 -6.30457186 6.78073199 -4.47265625 4.65625 C-3.0365188 3.04107155 -1.54400223 1.51173949 0 0 Z " fill="#03DF55" transform="translate(200,473)"/>
<path d="M0 0 C2.46837903 1.07701715 3.43225679 2.58620896 4.87109375 4.81640625 C3.96359375 4.58953125 3.05609375 4.36265625 2.12109375 4.12890625 C-1.0183697 3.51950459 -1.0183697 3.51950459 -3.06640625 4.87890625 C-3.74703125 5.51828125 -4.42765625 6.15765625 -5.12890625 6.81640625 C-6.22818292 7.78034484 -7.33290246 8.73809299 -8.44140625 9.69140625 C-9.33472656 10.46484375 -9.33472656 10.46484375 -10.24609375 11.25390625 C-13.09222519 13.61584105 -16.09099236 15.708466 -19.12890625 17.81640625 C-17.03962984 13.16117386 -13.79820669 10.27112771 -10.12890625 6.81640625 C-9.09056641 5.80513672 -9.09056641 5.80513672 -8.03125 4.7734375 C-7.34160156 4.12761719 -6.65195312 3.48179687 -5.94140625 2.81640625 C-4.99201172 1.91921875 -4.99201172 1.91921875 -4.0234375 1.00390625 C-2.12890625 -0.18359375 -2.12890625 -0.18359375 0 0 Z " fill="#EBF981" transform="translate(628.12890625,305.18359375)"/>
<path d="M0 0 C0.99 0.33 1.98 0.66 3 1 C0.48772302 3.57100671 -2.03631919 6.13015925 -4.5625 8.6875 C-5.26697266 9.40873047 -5.97144531 10.12996094 -6.69726562 10.87304688 C-10.88199327 15.09634344 -15.05016337 18.70227704 -20 22 C-18.51346494 18.53370165 -16.54277649 16.30977964 -13.8671875 13.671875 C-12.65869141 12.47304688 -12.65869141 12.47304688 -11.42578125 11.25 C-10.58402344 10.425 -9.74226563 9.6 -8.875 8.75 C-8.02550781 7.90953125 -7.17601562 7.0690625 -6.30078125 6.203125 C-4.20495077 4.13084317 -2.10459287 2.06337607 0 0 Z " fill="#E8FB75" transform="translate(470,456)"/>
<path d="M0 0 C0 3 0 3 -2.11132812 5.4519043 C-3.07697101 6.41707201 -4.05087603 7.37401783 -5.03125 8.32421875 C-5.54175903 8.83048294 -6.05226807 9.33674713 -6.57824707 9.85835266 C-8.21193407 11.47523405 -9.85573744 13.08138126 -11.5 14.6875 C-12.6087547 15.78121031 -13.71683647 16.87560326 -14.82421875 17.97070312 C-17.54173139 20.65512158 -20.26836361 23.3299581 -23 26 C-23.66 25.67 -24.32 25.34 -25 25 C-21.50778167 20.67630112 -17.89977465 16.94832488 -13.60546875 13.421875 C-11.44647497 11.50977345 -9.78900214 9.25281751 -8 7 C-7.34 7 -6.68 7 -6 7 C-5.67 6.01 -5.34 5.02 -5 4 C-3.37667033 2.61423077 -1.71275535 1.27358732 0 0 Z " fill="#01976D" transform="translate(935,728)"/>
<path d="M0 0 C0 3 0 3 -1.92773438 5.26831055 C-2.80751953 6.13238525 -3.68730469 6.99645996 -4.59375 7.88671875 C-5.05986694 8.34859085 -5.52598389 8.81046295 -6.00622559 9.28633118 C-7.4972629 10.76056952 -8.99838872 12.22404088 -10.5 13.6875 C-11.51240054 14.68485528 -12.52412811 15.68289417 -13.53515625 16.68164062 C-16.01567629 19.12907564 -18.50535089 21.56695887 -21 24 C-21 21 -21 21 -20 19 C-19.34 19 -18.68 19 -18 19 C-17.67 18.01 -17.34 17.02 -17 16 C-13.55840302 12.24553057 -9.71832931 8.97931441 -5.87109375 5.6484375 C-3.82596494 3.84667474 -1.88750208 1.966148 0 0 Z " fill="#01976D" transform="translate(973,689)"/>
<path d="M0 0 C6.03481206 4.98527953 11.50943547 10.42666314 17 16 C18.33220195 17.33446376 19.66513322 18.66820188 21 20 C18 20 18 20 16.00708008 18.37939453 C15.26868896 17.63802246 14.53029785 16.89665039 13.76953125 16.1328125 C12.96708984 15.32972656 12.16464844 14.52664063 11.33789062 13.69921875 C10.50451172 12.84972656 9.67113281 12.00023437 8.8125 11.125 C7.96751953 10.28324219 7.12253906 9.44148437 6.25195312 8.57421875 C0 2.26675999 0 2.26675999 0 0 Z " fill="#CCFA52" transform="translate(841,512)"/>
<path d="M0 0 C-1.31933889 3.562215 -3.47899812 5.38045583 -6.4140625 7.70703125 C-8.78070558 9.63648657 -10.87184659 11.81432893 -13 14 C-14 15 -15 16 -16 17 C-16.66 16.67 -17.32 16.34 -18 16 C-15.38308836 13.32529045 -12.75518292 10.66165519 -10.125 8 C-9.00544922 6.8553125 -9.00544922 6.8553125 -7.86328125 5.6875 C-7.14785156 4.965625 -6.43242187 4.24375 -5.6953125 3.5 C-5.03547363 2.8296875 -4.37563477 2.159375 -3.69580078 1.46875 C-2 0 -2 0 0 0 Z " fill="#D4F86E" transform="translate(450,477)"/>
<path d="M0 0 C0.33 0 0.66 0 1 0 C1 3.63 1 7.26 1 11 C0.67 11 0.34 11 0 11 C-0.33 9.35 -0.66 7.7 -1 6 C-3.97 8.475 -3.97 8.475 -7 11 C-7.66 10.67 -8.32 10.34 -9 10 C-8.27683594 9.29423828 -8.27683594 9.29423828 -7.5390625 8.57421875 C-6.90742188 7.95160156 -6.27578125 7.32898438 -5.625 6.6875 C-4.68527344 5.76517578 -4.68527344 5.76517578 -3.7265625 4.82421875 C-1.81913393 2.91187472 -1.81913393 2.91187472 0 0 Z " fill="#0BBA50" transform="translate(350,306)"/>
<path d="M0 0 C2.31 0 4.62 0 7 0 C6.77441406 0.59296875 6.54882812 1.1859375 6.31640625 1.796875 C5.73501743 4.04312742 5.73501743 4.04312742 7.21484375 5.703125 C8.06755859 6.46882812 8.06755859 6.46882812 8.9375 7.25 C9.78634766 8.03117188 9.78634766 8.03117188 10.65234375 8.828125 C11.31943359 9.40820312 11.31943359 9.40820312 12 10 C11.67 10.66 11.34 11.32 11 12 C9.16364422 10.19047409 7.33083792 8.37759362 5.5 6.5625 C4.97535156 6.04623047 4.45070312 5.52996094 3.91015625 4.99804688 C2.58775448 3.68423213 1.29164432 2.34406495 0 1 C0 0.67 0 0.34 0 0 Z " fill="#04995D" transform="translate(141,546)"/>
<path d="M0 0 C0.66 0.33 1.32 0.66 2 1 C-0.28356246 3.34138543 -2.57813374 5.67166982 -4.875 8 C-5.85146484 9.00160156 -5.85146484 9.00160156 -6.84765625 10.0234375 C-7.47285156 10.65507812 -8.09804688 11.28671875 -8.7421875 11.9375 C-9.3182373 12.52402344 -9.89428711 13.11054688 -10.48779297 13.71484375 C-12 15 -12 15 -14 15 C-12.58143752 11.66564695 -10.90068437 9.80434174 -8.125 7.5 C-5.28915088 5.10241847 -2.57491762 2.68220585 0 0 Z " fill="#31D453" transform="translate(617,311)"/>
<path d="M0 0 C0.33 1.32 0.66 2.64 1 4 C-0.65234375 6.140625 -0.65234375 6.140625 -2.9375 8.25 C-3.68902344 8.95640625 -4.44054687 9.6628125 -5.21484375 10.390625 C-5.80394531 10.92171875 -6.39304687 11.4528125 -7 12 C-7.66 11.34 -8.32 10.68 -9 10 C-6.03 6.7 -3.06 3.4 0 0 Z " fill="#02B252" transform="translate(338,319)"/>
<path d="M0 0 C2 1 2 1 2 1 Z M-1 1 C-0.67 1.66 -0.34 2.32 0 3 C-0.66 3 -1.32 3 -2 3 C-2 3.66 -2 4.32 -2 5 C-2.66 5 -3.32 5 -4 5 C-4.2475 5.598125 -4.495 6.19625 -4.75 6.8125 C-6.16370012 9.28647521 -7.65055383 10.43370255 -10 12 C-10.66 11.67 -11.32 11.34 -12 11 C-10.54474941 9.51780033 -9.085701 8.03932861 -7.625 6.5625 C-6.81289063 5.73878906 -6.00078125 4.91507813 -5.1640625 4.06640625 C-3 2 -3 2 -1 1 Z " fill="#D4F870" transform="translate(405,520)"/>
<path d="M0 0 C-1.44781793 3.44428265 -3.27694609 5.36130962 -6.125 7.75 C-7.21167969 8.67039062 -7.21167969 8.67039062 -8.3203125 9.609375 C-8.87460937 10.06828125 -9.42890625 10.5271875 -10 11 C-10 8 -10 8 -8.3203125 5.95703125 C-7.23363281 4.89548828 -7.23363281 4.89548828 -6.125 3.8125 C-5.40570312 3.09707031 -4.68640625 2.38164062 -3.9453125 1.64453125 C-2 0 -2 0 0 0 Z " fill="#DCF679" transform="translate(620,312)"/>
<path d="M0 0 C0.66 0.99 1.32 1.98 2 3 C-0.31 5.31 -2.62 7.62 -5 10 C-5.66 9.34 -6.32 8.68 -7 8 C-4.69 5.36 -2.38 2.72 0 0 Z " fill="#02B854" transform="translate(314,345)"/>
<path d="M0 0 C0.99 0.33 1.98 0.66 3 1 C0.69 3.31 -1.62 5.62 -4 8 C-4.66 7.34 -5.32 6.68 -6 6 C-4.02 4.02 -2.04 2.04 0 0 Z " fill="#03BB57" transform="translate(323,336)"/>
<path d="M0 0 C4.41889613 1.35021826 6.34345343 3.26115668 9 7 C6 7 6 7 4.39453125 5.46875 C3.87246094 4.8190625 3.35039063 4.169375 2.8125 3.5 C2.28269531 2.8503125 1.75289062 2.200625 1.20703125 1.53125 C0.80871094 1.0259375 0.41039062 0.520625 0 0 Z " fill="#C7F855" transform="translate(767,441)"/>
<path d="M0 0 C0 3 0 3 -1.3125 4.60546875 C-1.869375 5.12753906 -2.42625 5.64960937 -3 6.1875 C-3.556875 6.71730469 -4.11375 7.24710938 -4.6875 7.79296875 C-5.120625 8.19128906 -5.55375 8.58960938 -6 9 C-6.66 8.67 -7.32 8.34 -8 8 C-3.375 2.25 -3.375 2.25 0 0 Z " fill="#02936B" transform="translate(891,773)"/>
<path d="M0 0 C0.66 0.33 1.32 0.66 2 1 C2 1.99 2 2.98 2 4 C-1.63 4 -5.26 4 -9 4 C-9 3.67 -9 3.34 -9 3 C-7.88625 2.87625 -6.7725 2.7525 -5.625 2.625 C-1.96896323 2.3534187 -1.96896323 2.3534187 0 0 Z " fill="#0CE758" transform="translate(1114,541)"/>
<path d="M0 0 C-1.28965176 1.37562854 -2.62689293 2.70766393 -4 4 C-4.66 4 -5.32 4 -6 4 C-6 2.68 -6 1.36 -6 0 C-3.50907189 -1.24546405 -2.58919267 -0.7767578 0 0 Z " fill="#3BCE51" transform="translate(626,306)"/>
</svg>
